<svg data-name="Layer 3" xmlns="http://www.w3.org/2000/svg" viewBox="0 0 1290.33 323.7"><title>SVG Animation</title><path d="M5 35.75c9.94-18.39 134.92-42 194.67-24.75 34.86 10.07 39.49 30 7.33 51.25-38.58 25.5-144.31 34.86-143.83 31 0-3.47 90.8-14.78 134.3-1.94 47.5 15 47.51 35 42.07 45-12 22-47.7 35.32-60.37 39.58-50 16.84-121.48 25.26-136 7.57" fill="none" stroke="#ffd800" stroke-linecap="round" stroke-linejoin="round" stroke-width="10"/><path d="M85.83 11.03c-7.85 16-20.41 154.89-13.45 180.63" fill="none" stroke="#ffd800" stroke-linecap="round" stroke-linejoin="round" stroke-width="12"/><path d="M255.79 148s18.63-26.5 15-36.87c-1.74-5-7.62 1.25-6.12 10.5s5.33 11.79 10 9.29 13.06-11.44 14.87-5.29c2.88 9.75-16.64 34.56 4.13 50.22 23 17.35 57.3-45.65 48.5-43.22-9.5 2.62-7.83 49.87 12.87 49.87 12.88 0 30.69-13.29 39.75-36 9.13-22.87 25.75-32.25 33.75-23.75-8-5.62-23.59.56-32.12 21.75-2.93 7.28-13 43.38 12.75 36.63 37.75-9.63 69.87-146.16 53.62-148.1-14.08-1.68-33 67.14-32.5 96.1s8.38 50.37 21.88 52.25c25.62 2.75 46.5-45.63 53.12-53.88 5.07-6.31 22.65-14.84 26.88 12-3.34-21.16-14.66-19.63-21.25-14.87-13 9.37-28 50.12-13.38 59.62 7.59 4.93 22.88-4.25 31.88-29.5 7-19.55 11.75-32.87 11.75-32.87S530.9 147.66 530.79 178c-.06 17.5 13.6 144.33-32 140.63-19-1.54-12-81 44.88-127 43.16-38.17 52-74.87 38.33-78.67-16.79-4.69-27.45 31.95-20.4 54.49 1.66 5.33 14.06 22.89 34.57 10.51 14.45-8.72 38-41.14 42.27-70.79.93-6.48 3.23 6.37 7.21 15.12 6.06 13.33 8.52 23.84 5.6 32.75-2.24 6.86-8.34 15.23-19.08 13.92-13.67-1.67-12.47-17.48-12-11.83 1.21 14.58 20.37 26.94 33.2 26.27 23.65-1.23 40.09-31.12 44-41.75M746.67 131.5c-9.88 5.13-23.13 44.35-1.88 51.38 34 5.62 34.73-63.36 15.86-65.61-12.63 0-10 13.95-8 20.45s13.72 28.71 38.23 21.84c30.66-9.13 25.06-85.56 46.81-119.81a1.88 1.88 0 1 0-3.37-1.36c-31.88 130.86-37.44 202.39-35.88 225.11 1.12 16.38 7.69 42.07 27.5 43.88 26 2.37 43.37-91.88 15.5-123.13-10.75-11.5-26.63-15.13-27.88-12.25-1.37 3.62 22.13 14.13 37.13 5.38s24.37-25.63 28.25-37.63M892.67 27.25c26 0 156-20.5 196-14.5" fill="none" stroke="#ffd800" stroke-linecap="round" stroke-linejoin="round" stroke-width="10"/><path d="M1000.67 17.75c-1.5 14-15.5 155.5-10 169.5" fill="none" stroke="#ffd800" stroke-linecap="round" stroke-linejoin="round" stroke-width="12"/><path d="M1043.67 134.75s-12.17 43.67 15.86 46.65c21.66.83 43.14-45.81 48.14-48.81 9-5.43-2.47 46 7.33 48.5 12.5 3.16 23.14-50.5 33-50.5 5 0-.77 47.16 5.67 48.16 10.66 1.67 22.33-53.66 29-51.46 11.65 3.83-11.51 49.46 17.15 54.81 20.93 3.91 60.34-58.18 42.5-68.18-12.83-7.33-31.08 33.72-19.91 56.25 6.25 12.6 35.41 25.92 62.91-29.58" fill="none" stroke="#ffd800" stroke-linecap="round" stroke-linejoin="round" stroke-width="10"/><path fill="none" stroke="#ffd800" stroke-linecap="round" stroke-linejoin="round" stroke-width="16" d="M341.12 108.2l-.58 2.18M1043.12 108.2l-.58 2.18"/></svg>