<svg xmlns="http://www.w3.org/2000/svg" viewBox="0 0 25.79 25.78"><defs><style>.cls-1{fill:#f8fcff}.cls-2{fill:#191315}</style></defs><title>bus</title><g id="Layer_2" data-name="Layer 2"><g id="Layer_1-2" data-name="Layer 1"><path class="cls-1" d="M12.9 25.78A12.89 12.89 0 1 0 0 12.89a12.89 12.89 0 0 0 12.9 12.89"/><path class="cls-2" d="M10.14 5.93l-.14.18v1l.18.18h5.51l.18-.18v-1l-.18-.18zm6.35 11.5l-.16.16v.62l.16.14h1.63l.15-.14v-.62l-.15-.16zm-8.82 0l-.15.16v.62l.15.14H9.3l.15-.14v-.62l-.15-.16zM7.7 8l-.18.18v6.15l.18.18h10.39l.18-.18V8.16L18.09 8zm-.87-3H19l.24.24V8H21l.18.17V12l-.18.17h-1.19l-.17-.17V8.7h-.43v11.82l-.24.23h-2.42l-.24-.23v-.76H9.48v.76l-.24.23H6.83l-.24-.23V8.7h-.44V12l-.15.15H4.76L4.6 12V8.15L4.76 8h1.83V5.26L6.83 5z"/></g></g></svg>