<svg xmlns="http://www.w3.org/2000/svg" viewBox="0 0 239.69 156.44"><title>hotel</title><g data-name="Layer 1"><path d="M222.33 44.17c-7.06-5.06-15.6-7.27-24.22-7.27h-82c-3.07 0-6.2-.11-9.28 0a7.14 7.14 0 0 0-1.12.09A16 16 0 0 0 92.2 48.77a28.64 28.64 0 0 0-.52 7.15v33.85H17.29v-64c0-5.6.12-11.23 0-16.86v-.28c0-4.51-4-8.82-8.62-8.62A8.76 8.76 0 0 0 .05 8.63v122c0 5.6-.11 11.24 0 16.84v.23c0 4.51 4 8.82 8.62 8.62a8.76 8.76 0 0 0 8.62-8.62V107h205.16v40.8c0 4.51 4 8.82 8.62 8.62a8.76 8.76 0 0 0 8.62-8.62V77.24a41 41 0 0 0-17.36-33.07z"/><path d="M77 59a22.76 22.76 0 0 0-15.09-21 22.4 22.4 0 0 0-26.57 32.55A22.75 22.75 0 0 0 59.33 81c10.17-2 17.44-11.41 17.73-21.55v-.38S77 59.05 77 59z"/></g></svg>