<svg xmlns="http://www.w3.org/2000/svg" viewBox="0 0 290.66 72.51"><defs><style>.cls-1{fill:#ffce02}</style></defs><title>ilight_logo</title><g id="Layer_2" data-name="Layer 2"><g id="Layer_1-2" data-name="Layer 1"><path class="cls-1" d="M102.81 38.06l5.7-4.78h-.18c-3.72 0-4.51-1.46-4.51-4.33V18h4.42v-5.57h-4.42V5.3l-6 5.08V29c0 5.6 1.22 8.07 5 9zm-16.15.52h6V21.49c0-5.61-2.61-9.19-8.26-9.19a6.87 6.87 0 0 0-5.4 2.3V0l-6 5.07v33.51h6V22.15c0-2.92 1.28-4.33 3.89-4.33s3.8 1.19 3.8 4.37v16.39zm-18.8.66V8.09l-5.43 4.56v2.74c-1-1.85-3-3-5.92-3-5.12 0-8.48 2.83-8.48 10.07V29c0 6.72 3.22 9.76 8.66 9.76 3 0 4.59-1.23 5.52-2.65v3.09c0 3.22-1 4.86-4.2 4.86-2.26 0-3.4-1-3.56-2.72l-4.85 4.07c1.4 2.53 4.11 3.81 8.4 3.81 6.32 0 9.85-3.22 9.85-10zM61 28.07c0 3.31-1 5.3-4.07 5.3-2.51 0-3.75-1.5-3.75-5.17v-5.43c0-3.76 1.46-5 3.84-5 3 0 4 2.21 4 5.21v5.08zM43 7.27c0-4.47-6.85-4.51-6.85 0s6.85 4.41 6.85 0zM29.68 38.58h1.38v-5.81h-.95c-2.51 0-3-.93-3-3.8V0L21 5.08V29c0 7.3 2 9.43 8.67 9.52zM6.85 7.27C6.85 2.8 0 2.76 0 7.27s6.85 4.41 6.85 0zm-.45 5.91L.35 18.26v20.36H6.4V13.18zm36.13-.08h-6.05v25.52h6.05V13.1zM122.61 31.36c0 5.4 3.29 7.4 8.38 7.4 5.7 0 8.33-2.94 8.33-7.48 0-5.8-4-6.6-7.8-7.13-3.34-.45-6.46-.49-6.46-5 0-2.94 1.74-4.81 5.75-4.81s5.57 1.61 5.66 4.81h2.18c0-4.27-2.36-6.9-7.89-6.9-5.3 0-8.06 2.67-8.06 7 0 5.52 3.43 6.37 6.9 6.82 3.66.49 7.4.58 7.4 5.3 0 3.34-2 5.3-6 5.3-4.6 0-6.15-2.22-6.15-5.26zm23.7-19h-2.18v26.27h2.18V12.34zm-2.8-6.6a1.65 1.65 0 0 0 3.29 0 1.65 1.65 0 0 0-3.29 0zm9.58 7v25.87h2.23V20.45c0-3 1.56-6.24 6.24-6.24s6 1.74 6 7.53v16.89h2.23V21.74c0-6.73-1.88-9.49-8-9.49-3.21 0-5.35 1.33-6.55 3.25l-.18-2.76zm22.68 29.41c.22 4.55 2.63 6.51 7.53 6.51 5.62 0 8.43-2.54 8.43-9.67V12.74h-2v2.89c-1.16-2.27-3.21-3.25-6.28-3.25-5.71.13-8.38 2.27-8.38 9.31v8.11c0 6.6 2.67 9 8 9 2.94 0 5.21-.71 6.5-3.12V39c0 5.34-1.29 7.62-6.24 7.62-4.23 0-5.3-1.7-5.43-4.46zm13.68-12.26c0 4.33-1.74 6.69-6.19 6.69-4.06 0-5.88-1.38-6-6.73v-8.13c0-5.48 1.47-7.18 6.15-7.26s6 2.94 6 8v7.44zm23.62 8.74V21.07c0-6.06-2.54-8.56-7.8-8.56-5.61 0-7.8 2.63-7.8 8.11h2.14c0-4.94 2-6.1 5.66-6.1 4.1 0 5.71 2 5.66 6.6v3.74c-9.13-.71-14.7.62-14.7 7.08 0 4.95 3 6.91 7.26 6.91 3.48 0 5.88-.8 7.67-3.7v3.48zm-2.14-8.29a6.24 6.24 0 0 1-6.64 6.42c-3.92 0-5.84-1.43-5.84-4.77 0-4.55 4-5.84 12.48-5v3.34zm16.54-18.09c-3.21 0-5.22 1.15-6.47 3l-.22-2.85h-2v34.32h2.23V36.45c1.43 1.64 3.3 2.31 6 2.31 5.16 0 8.24-2.54 8.24-8.69v-8.42c0-6.82-2.36-9.4-7.84-9.4zm5.61 9.44V30c0 4.37-1.2 6.73-6 6.73s-6.07-2.05-6-7v-8.6c0-4.24 1.65-6.69 6.19-6.78 3.93 0 5.84 1.52 5.84 7.35zm15.42 15.2c-5.12 0-6-2.27-6-7.89V22.1c0-5.49 1.21-7.67 6-7.67 5.12 0 6 2.14 6 7.75v6.91c0 5.48-1.21 7.8-6 7.8zm0 2c5.62 0 8.25-2.54 8.25-9.76v-7c0-7.66-2.63-9.84-8.25-9.84s-8.24 2.36-8.24 9.71v7.13c0 7.58 2.63 9.76 8.24 9.76zm13.15-26.6v26.32h2.23V20.09c0-3.7 2.85-6.24 6.82-5.61v-2.1a6.34 6.34 0 0 0-6.95 3.08l-.14-3.12zm26.69 19.2c0 3.08-.94 5.22-5.7 5.22s-6.11-2.54-6.11-7.85V26h14.13v-3.9c0-6.87-2-9.85-8-9.85-5.62 0-8.25 2.71-8.25 9.85v7c0 7.09 2.63 9.67 8.25 9.67 5.3 0 7.71-2.49 7.71-7.22zm-11.81-7.62V22c0-5.49 1.29-7.89 6.11-7.89 5.17 0 6.06 3 6.06 8v1.78zM63.58 72.4a6.23 6.23 0 0 0 3.36-.65 4 4 0 0 0 1.94-3.53 3.69 3.69 0 0 0-2.57-3.69 3.31 3.31 0 0 0 2.12-3.22 3.53 3.53 0 0 0-1.59-3.15 6.66 6.66 0 0 0-3.26-.58h-3.36V72.4zm-2.1-1.13V65.2h2.21a5.08 5.08 0 0 1 2.48.42 2.89 2.89 0 0 1 1.45 2.6 3 3 0 0 1-1.33 2.57 5.24 5.24 0 0 1-2.71.48zm0-7.2v-5.36h2.1a5.09 5.09 0 0 1 2.63.48 2.55 2.55 0 0 1 1 2.15 2.8 2.8 0 0 1-.9 2.14c-.48.42-1.15.59-2.58.59zm11.91-5.38v-1.51h-1.47v1.51zm-.13 13.71V61h-1.21v11.4zm10.28-3.78c0 1.72-1 2.75-2.41 2.75A2.11 2.11 0 0 1 79 69.92a5.26 5.26 0 0 1-.22-1.92v-2.61A5.3 5.3 0 0 1 79 63.5a2.12 2.12 0 0 1 2.1-1.45c1.43 0 2.41 1 2.41 2.73h1.18a3.56 3.56 0 0 0-3.57-3.87 3.36 3.36 0 0 0-3.2 2.09 5.6 5.6 0 0 0-.36 2.25v2.9a5.57 5.57 0 0 0 .36 2.25 3.35 3.35 0 0 0 3.21 2.1 3.61 3.61 0 0 0 3.59-3.89zm9.87 0a2.44 2.44 0 0 1-2.48 2.73 2.24 2.24 0 0 1-2.22-1.45 5.48 5.48 0 0 1-.25-1.9v-1.5h6.17v-1.24a5.6 5.6 0 0 0-.36-2.26 3.7 3.7 0 0 0-6.67 0 5.6 5.6 0 0 0-.36 2.25v2.9a5.57 5.57 0 0 0 .36 2.25 3.48 3.48 0 0 0 3.33 2.1 3.59 3.59 0 0 0 3.66-3.87zm-4.7-5.14a2.43 2.43 0 0 1 4.45 0 5.48 5.48 0 0 1 .25 1.89h-5a5.48 5.48 0 0 1 .25-1.89zm16.67 8.9v-7.16a6.51 6.51 0 0 0-.35-2.39 3.33 3.33 0 0 0-5.82-.38V61H98v11.4h1.22v-7a5.3 5.3 0 0 1 .25-1.89 2.43 2.43 0 0 1 4.45 0 5.24 5.24 0 0 1 .26 1.89v7zm7.71-1.05c-1.3 0-1.89-.42-2.16-1a4.19 4.19 0 0 1-.23-1.7v-6.29h2.39v-1.11h-2.39v-2.71h-1.22v2.71h-1.37v1.11h1.37v6.32a6.58 6.58 0 0 0 .23 2c.46 1.41 1.7 1.83 3.38 1.83v-1.14zm8.69-2.71a2.43 2.43 0 0 1-2.47 2.73 2.25 2.25 0 0 1-2.23-1.45 5.48 5.48 0 0 1-.25-1.89V66.5H123v-1.24a5.79 5.79 0 0 0-.35-2.25A3.71 3.71 0 0 0 116 63a5.6 5.6 0 0 0-.36 2.25v2.9a5.57 5.57 0 0 0 .36 2.25 3.48 3.48 0 0 0 3.34 2.1 3.59 3.59 0 0 0 3.66-3.86zm-4.7-5.14a2.43 2.43 0 0 1 4.45 0 5.48 5.48 0 0 1 .25 1.89h-5a5.48 5.48 0 0 1 .25-1.89zm16.67 8.9v-7.16a6.51 6.51 0 0 0-.35-2.39 3.33 3.33 0 0 0-5.82-.38V61h-1.22v11.4h1.22v-7a5.3 5.3 0 0 1 .25-1.89 2.43 2.43 0 0 1 4.45 0 5.24 5.24 0 0 1 .26 1.89v7zm11.07 0v-7.16a6.3 6.3 0 0 0-.36-2.39 3.32 3.32 0 0 0-5.81-.38V61h-1.22v11.4h1.22v-7a5.3 5.3 0 0 1 .25-1.89 2.43 2.43 0 0 1 4.45 0 5.3 5.3 0 0 1 .25 1.89v7zm5-13.71v-1.49h-1.47v1.51zm-.12 13.71V61h-1.22v11.4zm9.3-4.35a5.5 5.5 0 0 1-.25 1.89 2.36 2.36 0 0 1-2.46 1.45c-1.66 0-2.42-.88-2.42-2a2.12 2.12 0 0 1 .84-1.79c.51-.33 1.22-.46 2.94-.46H159v1zm1.22 4.35v-7.16a6.48 6.48 0 0 0-.38-2.39 3.21 3.21 0 0 0-3.15-1.92 3.52 3.52 0 0 0-3.68 3.66h1.18a2.33 2.33 0 0 1 2.44-2.52 2.08 2.08 0 0 1 2.12 1.43 5.54 5.54 0 0 1 .25 1.89V66h-1.47c-2 0-2.88.21-3.47.59a3.11 3.11 0 0 0-1.4 2.75c0 2.08 1.47 3.15 3.38 3.15A3.3 3.3 0 0 0 159 71v1.4zm4.89 0V57.07h-1.22V72.4zm16.4 0v-1.11h-6.43v-6.11h5.4V64h-5.4v-5.29h6.37v-1.13h-7.63V72.4zm10.23 0V57.07h-1.22v5.31a2.8 2.8 0 0 0-2.65-1.47 3.25 3.25 0 0 0-3.17 2 6.72 6.72 0 0 0-.36 2.43v2.86a6.59 6.59 0 0 0 .36 2.4 3 3 0 0 0 3 1.91 3.17 3.17 0 0 0 2.86-1.51v1.4zm-1.22-4.35a5.5 5.5 0 0 1-.25 1.89 2.44 2.44 0 0 1-4.46 0 5.5 5.5 0 0 1-.25-1.89v-2.66a5.54 5.54 0 0 1 .25-1.89 2.44 2.44 0 0 1 4.46 0 5.54 5.54 0 0 1 .25 1.89v2.68zm6.36-9.36v-1.49h-1.47v1.51zm-.08 13.73V61h-1.22v11.4zm7.83-1.05c-1.3 0-1.89-.42-2.16-1a4.15 4.15 0 0 1-.24-1.7v-6.31h2.4v-1.11h-2.4v-2.71H201v2.71h-1.37v1.11H201v6.32a6.58 6.58 0 0 0 .23 2c.46 1.41 1.7 1.83 3.38 1.83v-1.14zm4.2-12.66v-1.51h-1.47v1.51zm-.13 13.71V61h-1.22v11.4zm10.88-7.14a5.6 5.6 0 0 0-.36-2.25 3.71 3.71 0 0 0-6.68 0 5.79 5.79 0 0 0-.35 2.25v2.9a5.76 5.76 0 0 0 .35 2.25 3.71 3.71 0 0 0 6.68 0 5.57 5.57 0 0 0 .36-2.25v-2.9zM218.36 68a5.48 5.48 0 0 1-.25 1.89 2.43 2.43 0 0 1-4.45 0 5.48 5.48 0 0 1-.25-1.89v-2.61a5.48 5.48 0 0 1 .25-1.89 2.43 2.43 0 0 1 4.45 0 5.48 5.48 0 0 1 .25 1.89V68zm12.08 4.37v-7.15a6.5 6.5 0 0 0-.36-2.39 3.33 3.33 0 0 0-5.82-.38V61H223v11.4h1.22v-7a5.54 5.54 0 0 1 .25-1.89 2.44 2.44 0 0 1 4.46 0 5.54 5.54 0 0 1 .25 1.89v7z"/></g></g></svg>