<svg xmlns="http://www.w3.org/2000/svg" viewBox="0 0 23.37 23.73"><defs><style>.cls-1{fill:#d04c27;stroke:#fff;stroke-miterlimit:10}.cls-2{fill:#fff}</style></defs><title>info</title><g id="Layer_2" data-name="Layer 2"><g id="Layer_1-2" data-name="Layer 1"><path class="cls-1" d="M22.87 23.23H.5V.5h22.37v22.73z"/><path class="cls-2" d="M13.26 17V9l-.35-.18a12.84 12.84 0 0 1-4 1v.82c1.23 0 1.31.1 1.31 1.62V17c0 1.52-.1 1.7-1.31 1.7v.87h5.57v-.87c-1.09 0-1.21-.18-1.21-1.68M11.68 7.78A1.72 1.72 0 0 0 13.4 6 1.72 1.72 0 1 0 10 6a1.72 1.72 0 0 0 1.71 1.81"/></g></g></svg>