<svg xmlns="http://www.w3.org/2000/svg" viewBox="0 0 25.78 25.78"><defs><style>.cls-1{fill:#ef4562}.cls-2{fill:#fff}</style></defs><title>mrt</title><g id="Layer_2" data-name="Layer 2"><g id="Layer_1-2" data-name="Layer 1"><path class="cls-1" d="M12.89 25.78A12.89 12.89 0 1 0 0 12.89a12.89 12.89 0 0 0 12.89 12.89"/><path class="cls-2" d="M16.18 13.92a.83.83 0 1 0 .83.83.83.83 0 0 0-.83-.83m-6.58 0a.83.83 0 0 0 0 1.65.83.83 0 0 0 0-1.65M9 7.65a.46.46 0 0 0-.46.45v2.1c0 .91 8.76.91 8.76 0V8.1a.46.46 0 0 0-.46-.45 58.6 58.6 0 0 0-7.84 0m2.66-2.18l-.1.12v.89l.1.12h2.53l.09-.12v-.89l-.09-.12zm-1.49 13.45h5.34l-.24-.57h-4.86l-.24.57zm-.5 1.2H16l-.25-.61H9.93l-.26.61zM18.3 7.31v8.53a.48.48 0 0 1-.17.4l-1.1 1-.38.16h-.4l1.64 3.95h-1.37l-.26-.63H9.43l-.26.63H7.79l1.65-4h-.3l-.38-.16-1.1-1a.52.52 0 0 1-.18-.4V7.31c0-2.61 3.09-2 3.09-2.41s.45-.41.68-.42a29.91 29.91 0 0 1 3.28 0c.23 0 .69.19.69.42 0 .39 3.08-.22 3.08 2.41"/></g></g></svg>