<svg xmlns="http://www.w3.org/2000/svg" viewBox="0 0 1375.16 1216.67"><defs><style>.cls-1,.cls-2{fill:none;stroke-miterlimit:10;stroke-width:10px}.cls-1{stroke:#ffcc02;opacity:.2}.cls-2{stroke:#7a1317}</style></defs><title>Asset 6</title><g id="Layer_2" data-name="Layer 2"><g id="iLight"><path class="cls-1" d="M2 4.87c10.29 4.36 18.66 9.84 27.86 15.87 8.08 4.09 16.73 11 14.59 21.52Q43.2 46.84 42 51.43c-9.29 17.82-15.52 36.46-14.25 56.42 2.45 29.1 32 35.91 52 49.07 33.17 20.54 71.32 36 98.17 64.33q89.55 117.86 179.86 238A178.67 178.67 0 0 0 375.67 477c13.41 12.37 29.76 12.34 44.65.57 2.48-2 56-47.09 70.41-78.27.26-2.22.52-4.44-.6-6.37-4.24-10-11.25-19.33-9.12-29.89 3.5-14.45 13.68-24.51 23.86-34.58.55-.83 19.32-24.13 19.91-24.93l-.69.87c15.4-21 32.7-38.76 49.75-57.47A105.44 105.44 0 0 1 592 230.12c9.12-4.79 19.1-5.42 29.63-6.89 10.81-.09 20.79-.72 31-.09l-2.42-.13c19 .84 51.52 8.93 69.59 15.14 4.47 1.53 5.12 1.56 6.45 6.72 1.1 4.24-25.67 41.59-34.63 63.36-10.39 25.24-15.35 46.93-16.79 74.68-.66 21.08 3.34 49.06 7.24 69.3 3.52 18.31 3.52 18.31 7.11 29.32 6.73 10.78 4.69 23.18 2.82 31.52-.26 2.22-5.88 21.13-11.87 35.46-19.75 47.3-30 87.7-50.45 131.69-1.09 1.67-3.77 5.51-7.24 5.84-7.78.74-27 6.08-29.21 5.82a11.41 11.41 0 0 0-9.32 8.92c-1.62 7.43-12.78 97.69-13.07 100.83-2.51 27.34-2.23 98.61-9.56 153.58-1.58 9.72-34.71 18-38.52 27.44-2.19 3.34-3.91 10.47.28 13.21 31.55 26.66 62.27 35.44 86.93 60.91 12.7 13.12 30.69 28.38 57.15 34 10.8 2.31 28.66 19.13 38.41 24.32 49.06 31 97.31 65 146.92 95.08a9 9 0 0 0 12.46-2.59c28.5-43.5 57.35-90 85.4-134l-2.81 4.44c8.19-13.47 30-39.21 35.68-53.4.26-2.22.52-4.44-.6-6.37a220.51 220.51 0 0 0-20.17-18.89c-2.51-1.64-5-4.32-3.66-7.18 10.76-22.5 27.94-34.35 40.26-55 2.19-3.34 11-14.21 15.14-15.07 6.59-2.81 14.51-8.67 20.55-13.07v-.08c13.35-7.26 32.26-40.63 41.27-50.4 4.19-4.55 9.16-8.95 11.23-15 1.95-5.67 2.5-41.73 2.79-49.06l-1.09 8c3.42-41.56 31.48-77.44 67.39-95.75 13.56-9 34.48-55.56 24.88-83.89-3-8.73-21.28-30.47-23-42.39-2.56-17.52 4.15-41.46 5.7-45.15 13.75-32.8 51.24-46.6 72-45.35 17 1 46.55 13.07 60.3 23.09 10.66 7.76 17.07 27.22 21.46 20.53 29.07-40.73 50.09-83.79 52.45-134.84 1.8-53.82-14.15-106.12-50-145.41"/><path class="cls-2" d="M652.82 222.87c-10.2-.63-20.18 0-31 .09-10.53 1.47-20.51 2.11-29.62 6.89a105.9 105.9 0 0 0-18.2 16.79c-17 18.72-34.34 36.5-49.75 57.48l.69-.88c-.59.81-19.36 24.1-19.91 24.94-10.18 10.06-20.36 20.13-23.85 34.58-2.14 10.55 4.87 19.93 9.11 29.88 1.13 1.93.87 4.15.61 6.37-14.46 31.18-67.94 76.31-70.42 78.27-14.88 11.77-31.24 11.81-44.65-.57A179.67 179.67 0 0 1 358 459q-90-120-179.88-238c-26.85-28.36-65-43.79-98.17-64.33-20.07-13.15-49.59-20-52-49.07-1.27-20 5-38.59 14.25-56.42L44.59 42C46.72 31.43 38.07 24.57 30 20.47 20.79 14.44 12.43 9 2.13 4.6"/></g></g></svg>