<svg xmlns="http://www.w3.org/2000/svg" viewBox="0 0 100 125"><path d="M54.6 5.038c-5.1 0-9.2 4.1-9.2 9.2s4.1 9.2 9.2 9.2 9.2-4.1 9.2-9.2c.1-5.1-4.1-9.2-9.2-9.2zm-1.3 21.1h-1.5 1.5zm-1.6 0h-2.4c-3.1 0-6.5.8-9 2.2-5.5 3-9.2 5.8-11.5 9.6-2.7 4.5-3 9.6-3 16.7 0 2 1.6 3.6 3.6 3.7 2 0 3.6-1.6 3.7-3.6v-.1c0-6.8.4-10.4 1.9-13 1.2-2 3.4-3.9 7.5-6.3l-3.3 15.9-.3 1.3c-.4 2-.1 3.6 1 5.3l6.3 9.7 1.8 2.8 14.4 22.2c1.5 2.4 4.7 3.1 7.1 1.6s3.1-4.7 1.6-7.1l-.1-.1-19.3-29.9 1.8-7.3 1.3-5.4 2.7-11.2c.8-3.6-2.2-7-5.8-7zm7.5 11.3l-2.3 9.8.3.3c3.8 3.7 8.7 5.1 15.6 6.7 1.9.5 3.9-.7 4.4-2.6s-.7-3.9-2.6-4.4h-.1c-6.6-1.6-10-2.8-12.2-4.9-1.1-1-2.1-2.6-3.1-4.9zm-21.8 21.9l-3.2 15.3-10.2 11.8c-1.9 2.1-1.7 5.4.4 7.3s5.4 1.7 7.3-.4l.1-.1 11.1-12.8c.6-.7 1-1.5 1.2-2.4l1.3-6.4-8-12.3z"/></svg>