<svg xmlns="http://www.w3.org/2000/svg" viewBox="0 0 22.37 22.74"><defs><style>.cls-1{fill:#fff}.cls-2{fill:#898b8d}</style></defs><title>wheelchair</title><g id="Layer_2" data-name="Layer 2"><g id="Layer_1-2" data-name="Layer 1"><path class="cls-1" d="M22.37 22.73H0V0h22.37v22.73z"/><path class="cls-2" d="M22.37 0H0v22.74h22.37V0zm-8 3.9A1.43 1.43 0 1 1 13 2.47a1.44 1.44 0 0 1 1.39 1.43m3.87 16l-3.16-5h-1.16a5 5 0 1 1-5.59-5.01L6.67 7.34 13 6v4.72l3.63 2.07 1.66 7.1zm-5.28-5a4 4 0 1 0-4 4 4 4 0 0 0 4-4"/></g></g></svg>